<svg width="36" height="90" viewBox="0 0 36 90" fill="none" xmlns="http://www.w3.org/2000/svg">
<path d="M5.8409 8.62675C5.8409 8.62675 5.65002 8.57273 5.52397 7.93526C5.40152 7.29779 6.03539 6.81518 6.0678 6.01204C6.10381 5.2089 6.35232 2.97235 5.76527 2.93634C5.17822 2.90392 5.43033 4.32293 5.11339 4.83434C4.80006 5.34576 3.86006 4.2545 3.61876 3.73228C3.37746 3.21005 2.41225 3.73588 1.28137 4.55342C0.150487 5.36737 -0.198862 5.24132 0.618685 6.98806C1.1265 8.07572 1.46865 8.53311 2.3114 8.92928C3.15416 9.32545 3.97531 10.4203 3.97531 10.4203L5.8337 8.63035L5.8409 8.62675Z" fill="#F8CBBC"/>
<path d="M3.82777 4.56064C3.82777 4.56064 3.53605 3.21727 3.12187 2.06478C2.7041 0.912289 2.42318 -0.0457172 2.06662 -0.00249888C1.71007 0.0407195 1.67406 0.300029 1.81092 0.998726C1.94777 1.69742 2.68609 4.60746 2.68609 4.60746L3.82417 4.55704L3.82777 4.56064Z" fill="#F8CBBC"/>
<path d="M1.9226 4.72992C1.9226 4.72992 1.14107 3.94838 1.54084 3.54861C1.94061 3.14884 2.52046 3.54861 2.78337 3.92678C3.04988 4.30133 4.00429 5.34218 3.58291 5.58348C3.16153 5.82478 2.36919 5.20172 1.9226 4.73352V4.72992Z" fill="#F8CBBC"/>
<path d="M1.15185 5.46103C1.15185 5.46103 0.37032 4.67949 0.77009 4.27972C1.16986 3.87995 1.74971 4.27972 2.01262 4.65788C2.27913 5.03244 3.23354 6.07329 2.81216 6.31459C2.39078 6.55589 1.59844 5.93283 1.15185 5.46463V5.46103Z" fill="#F8CBBC"/>
<path d="M0.449535 6.02645C0.449535 6.02645 -0.252763 5.32415 0.107389 4.9676C0.463941 4.61105 0.986163 4.9676 1.22386 5.30615C1.46156 5.64469 2.31873 6.57388 1.94057 6.78998C1.56241 7.00607 0.852906 6.44783 0.449535 6.02645Z" fill="#F8CBBC"/>
<path d="M22.0227 32.1916C22.0227 32.1916 21.8786 32.314 21.3131 32.0655C20.7477 31.817 20.7153 31.0643 20.1102 30.6033C19.5052 30.1423 17.8989 28.7449 17.5532 29.1843C17.211 29.6237 18.4499 30.1927 18.6804 30.7114C18.9109 31.23 18.2482 31.23 17.7116 31.1363C17.175 31.0427 16.3719 32.2204 16.3971 33.5386C16.4223 34.8567 16.8148 35.1809 17.9349 35.3645C19.055 35.5482 19.5952 35.5338 20.3587 35.0908C21.1223 34.6478 22.4152 34.601 22.4152 34.601L22.0227 32.188V32.1916Z" fill="#F8CBBC"/>
<path d="M17.8197 31.2299C17.8197 31.2299 16.75 30.7906 15.7524 30.524C14.7548 30.2575 13.9553 29.9946 13.8184 30.2647C13.6815 30.5348 13.84 30.6825 14.391 30.9238C14.9421 31.1651 17.3119 32.0475 17.3119 32.0475L17.8233 31.2335L17.8197 31.2299Z" fill="#F8CBBC"/>
<path d="M16.9195 32.1051C16.9195 32.1051 15.8138 31.7666 14.7946 31.5937C13.779 31.4208 12.9578 31.2335 12.8426 31.5145C12.7273 31.7954 12.9002 31.9286 13.4728 32.1159C14.0455 32.3032 16.4837 32.9623 16.4837 32.9623L16.9159 32.1051H16.9195Z" fill="#F8CBBC"/>
<path d="M16.7716 33.1712C16.7716 33.1712 15.6371 32.9407 14.6071 32.8651C13.577 32.793 12.7451 32.685 12.6587 32.9731C12.5722 33.2612 12.7559 33.3801 13.3429 33.5133C13.93 33.6466 16.4223 34.068 16.4223 34.068L16.7716 33.1712Z" fill="#F8CBBC"/>
<path d="M18.0503 34.3021C18.0503 34.3021 16.8942 34.2444 15.8677 34.3237C14.8413 34.4065 13.9985 34.4245 13.9553 34.7234C13.9121 35.0224 14.1138 35.1088 14.7116 35.152C15.3095 35.1952 17.8378 35.2385 17.8378 35.2385L18.0467 34.3021H18.0503Z" fill="#F8CBBC"/>
<path d="M22.2172 34.6946C24.4969 35.0908 30.2846 35.1592 32.251 35.0044C34.2175 34.8495 35.1719 33.8951 35.4456 33.2108C35.7193 32.5265 35.8778 30.2864 32.3807 30.1351C28.8836 29.9838 21.9542 31.9755 21.9542 31.9755C21.9542 31.9755 21.7274 32.3176 21.6949 33.2144C21.6661 34.1112 22.2172 34.6946 22.2172 34.6946Z" fill="#50558F"/>
<path d="M20.1066 33.0451L11.996 37.3778L5.09546 26.2346L13.2061 21.9056L20.1066 33.0451Z" fill="#E6E6E6"/>
<path d="M12.6119 25.2154L7.5049 27.9454L7.34644 27.686L12.4534 24.9597L12.6119 25.2154Z" fill="#CCCCCC"/>
<path d="M14.2938 25.8493L8.21804 29.0943L8.05957 28.8349L14.1353 25.59L14.2938 25.8493Z" fill="#CCCCCC"/>
<path d="M15.0069 26.9982L8.93111 30.2431L8.76904 29.9838L14.8484 26.7389L15.0069 26.9982Z" fill="#CCCCCC"/>
<path d="M15.72 28.1471L9.64065 31.392L9.48218 31.1363L15.558 27.8914L15.72 28.1471Z" fill="#CCCCCC"/>
<path d="M16.4296 29.2959L10.3538 32.5409L10.1953 32.2852L16.2711 29.0402L16.4296 29.2959Z" fill="#CCCCCC"/>
<path d="M17.1426 30.4448L11.0669 33.6898L10.9048 33.4341L16.9842 30.1891L17.1426 30.4448Z" fill="#CCCCCC"/>
<path d="M17.8558 31.5973L11.7764 34.8423L11.6179 34.583L17.6937 31.338L17.8558 31.5973Z" fill="#CCCCCC"/>
<path d="M32.2871 18.7795C32.2871 18.7795 32.5284 17.3821 34.2535 20.7027C35.9787 24.0233 36.0651 28.4928 35.9823 31.1975C35.8994 33.9023 34.7902 33.9527 32.8706 32.5121C30.9509 31.0715 29.9173 26.2058 29.5536 24.8805C28.79 22.1037 27.5007 18.0448 32.2835 18.7759L32.2871 18.7795Z" fill="#50558F"/>
<path d="M23.1392 84.5362C23.1392 84.5362 23.5785 85.8039 23.6218 86.3946C23.665 86.9816 23.8955 88.876 23.8523 89.2686C23.809 89.6612 22.5845 89.9349 21.9939 89.9925C21.4068 90.0465 21.0719 89.4739 20.5317 89.4379C20.2147 89.4163 19.6061 89.4703 19.2351 89.6756C18.3095 90.187 15.4895 89.1065 14.5675 88.4078C13.6455 87.7091 14.3982 86.7079 15.3923 86.5999C16.2566 86.5062 19.2027 86.499 19.9914 85.9372C20.7802 85.3753 20.5533 84.0644 20.5533 84.0644L23.1392 84.5398V84.5362Z" fill="#50558F"/>
<path d="M25.1489 12.7793L24.7095 16.8058C24.7095 16.8058 26.0384 17.5802 27.4971 17.7386C28.3038 17.8287 29.1249 17.2236 29.1249 17.2236L29.6292 13.2655L25.1489 12.7757V12.7793Z" fill="#F8CBBC"/>
<g style="mix-blend-mode:multiply">
<path d="M24.9507 14.6089C24.9507 14.6089 25.6026 15.783 27.1548 15.9127C28.7071 16.0387 29.3986 15.0951 29.3986 15.0951L29.6327 13.2691L25.1524 12.7793L24.9507 14.6089Z" fill="#F8CBBC"/>
</g>
<path d="M23.031 16.777C23.031 16.777 24.3023 14.9547 26.8666 14.9294C29.4273 14.9042 30.5906 15.5057 30.5978 16.118C30.605 16.7302 29.9063 17.9547 29.9063 17.9547L23.031 16.777Z" fill="#F2F2F2"/>
<path d="M23.845 9.05896C23.845 9.05896 23.917 12.4912 25.2316 12.8442L26.1391 9.90532L23.8486 9.05896H23.845Z" fill="#6167AD"/>
<path d="M22.6279 17.1588C22.6279 17.1588 24.7348 14.9907 27.3675 15.1995C30.0002 15.4048 30.8538 16.0279 30.8754 16.3232C30.897 16.6185 30.7061 17.8683 30.7061 17.8683L22.6243 17.1588H22.6279Z" fill="#4E538C"/>
<path d="M31.7972 80.2936C31.7972 80.2936 32.2978 81.5397 32.3698 82.1268C32.4419 82.7138 32.766 84.5902 32.7408 84.9864C32.7156 85.3826 31.5055 85.7175 30.922 85.8003C30.3386 85.8832 29.9784 85.3285 29.4346 85.3177C29.1177 85.3141 28.5126 85.3934 28.1525 85.6203C27.2521 86.1785 24.3853 85.2385 23.4273 84.5866C22.4692 83.9347 23.1751 82.8975 24.162 82.739C25.0191 82.6022 27.9652 82.4509 28.7251 81.8495C29.485 81.248 29.1933 79.9514 29.1933 79.9514L31.8008 80.2972L31.7972 80.2936Z" fill="#414474"/>
<path d="M28.2784 38.5807C28.2784 38.5807 30.6987 39.7476 31.2821 44.3683C31.8656 48.9891 29.9171 53.8188 30.1008 55.904C30.2845 57.9893 30.3745 65.1924 31.1453 69.5502C31.916 73.9081 32.7263 82.08 32.7263 82.08C32.7263 82.08 30.3709 83.7907 27.8787 82.5842C27.8787 82.5842 24.5256 62.2319 23.3047 57.9641C22.0838 53.6963 22.9194 40.1942 22.9194 40.1942L28.282 38.5807H28.2784Z" fill="#50558F"/>
<mask id="mask0_2_740" style="mask-type:luminance" maskUnits="userSpaceOnUse" x="22" y="38" width="11" height="46">
<path d="M28.2784 38.5807C28.2784 38.5807 30.6987 39.7476 31.2821 44.3683C31.8656 48.9891 29.9171 53.8188 30.1008 55.904C30.2845 57.9893 30.3745 65.1924 31.1453 69.5502C31.916 73.9081 32.7263 82.08 32.7263 82.08C32.7263 82.08 30.3709 83.7907 27.8787 82.5842C27.8787 82.5842 24.5256 62.2319 23.3047 57.9641C22.0838 53.6963 22.9194 40.1942 22.9194 40.1942L28.282 38.5807H28.2784Z" fill="white"/>
</mask>
<g mask="url(#mask0_2_740)">
<g style="mix-blend-mode:multiply" opacity="0.22">
<path d="M31.0733 39.1677C31.0733 39.1677 30.4322 51.9856 25.5629 56.365C20.6937 60.7445 22.5989 76.8073 22.5989 76.8073L25.2244 85.6635L33.9761 84.1328L31.0733 39.1641V39.1677Z" fill="#BEA090"/>
</g>
</g>
<path d="M24.868 40.1149C24.868 40.1149 26.0673 42.9637 25.9016 47.6169C25.7323 52.2701 24.0288 56.8296 23.8739 58.9185C23.7191 61.0074 24.2917 69.471 24.3493 73.8973C24.407 78.3236 23.892 86.5206 23.892 86.5206C23.892 86.5206 21.2916 87.828 19.0263 86.2361C19.0263 86.2361 17.7549 63.4636 17.2399 59.0518C16.7249 54.6435 17.312 40.648 17.312 40.648L24.868 40.1113V40.1149Z" fill="#6167AD"/>
<mask id="mask1_2_740" style="mask-type:luminance" maskUnits="userSpaceOnUse" x="17" y="40" width="9" height="48">
<path d="M24.868 40.1149C24.868 40.1149 26.0673 42.9637 25.9016 47.6169C25.7323 52.2701 24.0288 56.8296 23.8739 58.9185C23.7191 61.0074 24.2917 69.471 24.3493 73.8973C24.407 78.3236 23.892 86.5206 23.892 86.5206C23.892 86.5206 21.2916 87.828 19.0263 86.2361C19.0263 86.2361 17.7549 63.4636 17.2399 59.0518C16.7249 54.6435 17.312 40.648 17.312 40.648L24.868 40.1113V40.1149Z" fill="white"/>
</mask>
<g mask="url(#mask1_2_740)">
<g style="mix-blend-mode:multiply" opacity="0.22">
<path d="M27.3566 40.9793C27.3566 40.9793 24.5006 54.5391 20.3588 58.2126C16.2171 61.8898 15.522 76.8217 15.522 76.8217L16.3107 90.1474L25.7755 90.4895L27.3566 40.9793Z" fill="#BEA090"/>
</g>
</g>
<mask id="mask2_2_740" style="mask-type:luminance" maskUnits="userSpaceOnUse" x="17" y="16" width="18" height="26">
<path d="M27.0503 16.1468C23.8594 15.7974 20.7189 16.9499 18.9037 19.6258C17.0885 22.3018 19.4763 28.075 19.3035 30.9454C19.1342 33.8159 18.5363 36.3621 18.0105 38.0224C17.4847 39.6828 21.3311 41.4475 24.4969 41.7968C27.6626 42.1462 31.1129 40.7452 31.6711 39.5459C32.2329 38.3466 30.9976 36.6431 31.7359 33.2828C32.4742 29.9226 34.1634 23.4074 34.4227 21.4806C34.6784 19.5538 33.9869 16.9031 27.0467 16.1468H27.0503Z" fill="white"/>
</mask>
<g mask="url(#mask2_2_740)">
<g style="mix-blend-mode:multiply" opacity="0.32">
<path d="M19.0945 17.5874C19.0945 17.5874 18.7992 23.9405 20.6035 28.4064C22.4079 32.8687 19.9661 35.3573 20.8484 37.7019C21.7308 40.0465 28.3684 41.4259 33.1116 41.6276L23.8773 44.0802L14.2036 42.5604L15.1724 26.4147L16.1664 17.3137L19.0909 17.591L19.0945 17.5874Z" fill="#DBDCDC"/>
</g>
</g>
<path d="M15.0646 43.1006C15.8821 41.1018 18.1799 36.5134 18.4068 32.9479C18.6337 29.3788 15.7993 22.8852 17.899 19.5394C19.0479 17.7098 20.5569 17.1408 22.336 16.6546C22.5954 16.5717 22.8835 16.4925 23.204 16.4241C23.258 16.4097 23.3121 16.3953 23.3661 16.3809C23.4345 16.3628 23.5029 16.352 23.5714 16.352C23.5858 16.352 23.6002 16.3484 23.6146 16.3448C27.6303 15.6209 30.3891 16.7806 30.3891 16.7806C34.9702 18.1384 35.442 20.7351 35.1827 22.7267C34.8622 25.1614 32.8309 33.4017 31.9377 37.6515C31.1922 41.199 32.0494 43.2699 31.9701 44.7429L32.0026 44.7861C32.0026 44.7861 32.2943 45.7369 30.7816 46.2807C30.3495 46.4356 29.8885 46.504 29.4275 46.5004C27.85 46.4896 23.8919 47.0227 20.4633 46.4392C17.3083 45.9026 14.5784 44.3035 15.0682 43.1006H15.0646Z" fill="#6167AD"/>
<path d="M31.5627 9.2723C32.0145 7.22916 30.7245 5.20659 28.6814 4.75476C26.6382 4.30293 24.6157 5.59294 24.1638 7.63607L23.6653 9.89019C23.2135 11.9333 24.5035 13.9559 26.5467 14.4077C28.5898 14.8596 30.6124 13.5696 31.0642 11.5264L31.5627 9.2723Z" fill="#F8CBBC"/>
<path d="M22.7789 16.6726C22.7789 16.6726 26.6362 17.663 25.354 21.5598C24.0719 25.4567 14.6467 22.8384 13.4294 22.3306C9.0067 20.4794 7.49405 15.6137 12.3957 15.9811C14.6503 16.1504 19.7681 16.3448 22.7789 16.6726Z" fill="#6167AD"/>
<path d="M30.4647 14.0291C29.9677 14.7566 29.7336 15.2968 28.8692 15.1347C28.4479 15.0555 27.2449 14.7314 27.0036 14.7206C26.3698 14.6881 26.5318 11.3063 26.4994 10.8813C26.3878 9.33987 24.8967 8.10815 24.2485 7.95328C23.6002 7.80202 23.6326 6.01926 23.665 5.28815C23.7515 3.37214 25.1633 3.24968 26.3302 3.16325C27.4971 3.07681 28.4515 2.70585 30.2234 3.13083C33.933 4.01681 33.2595 6.17412 33.2595 6.17412C33.2595 6.17412 33.6737 5.96524 33.9978 7.08171C34.1203 7.49949 33.951 8.68079 33.4972 9.98454C33.1911 10.8669 32.2475 12.2211 31.6388 12.9342L30.4647 14.0291Z" fill="#6167AD"/>
<path d="M26.4563 7.83803C26.4563 7.83803 25.7612 8.65557 25.5343 8.93289C25.3074 9.21021 25.1814 9.55956 25.1814 9.55956L25.2066 7.74078L26.4599 7.83442L26.4563 7.83803Z" fill="#6167AD"/>
<path d="M25.5521 8.91129C25.5521 8.91129 26.3048 7.85965 27.072 8.56915C27.8355 9.27865 26.8667 11.8609 25.0515 11.1839L25.5557 8.91129H25.5521Z" fill="#F8CBBC"/>
<path d="M3.78461 10.3051C4.81104 12.5236 8.2325 17.5946 9.54705 19.2081C10.8652 20.8215 12.2662 21.0772 13.0261 20.9044C13.7861 20.7315 15.8281 19.5214 13.8545 16.3917C11.8808 13.2619 5.98514 8.43948 5.98514 8.43948C5.98514 8.43948 5.55296 8.44669 4.75342 8.9581C3.95748 9.47312 3.78101 10.3051 3.78101 10.3051H3.78461Z" fill="#6167AD"/>
</svg>
