<svg width="51" height="80" viewBox="0 0 51 80" fill="none" xmlns="http://www.w3.org/2000/svg">
<path d="M19.3636 70.7535C19.3636 70.7535 19.6323 62.776 19.2887 58.5338C18.9451 54.2949 20.2209 47.4026 20.2209 47.4026L23.6228 47.7904C23.6228 47.7904 21.898 66.2868 22.0987 70.3895C22.2994 74.4923 19.3636 70.7501 19.3636 70.7501V70.7535Z" fill="#F8CBBC"/>
<path d="M19.3907 69.8384C19.3907 69.8384 19.4792 71.3183 19.1152 72.1347C18.8736 72.6756 19.452 73.0771 19.7445 73.3968C20.3977 74.1044 20.4862 74.0874 20.9863 74.9957C21.4863 75.9041 23.3438 76.2375 24.793 75.9619C26.2422 75.6863 27.2866 75.3087 26.7185 74.6045C26.1504 73.9003 24.3167 73.8493 23.4084 72.6654C22.6192 71.6346 22.0953 70.3963 22.0953 70.3963L19.3873 69.8418L19.3907 69.8384Z" fill="#F8CBBC"/>
<path d="M25.0109 73.6758C25.0109 73.6758 26.6608 74.1453 27.3888 74.4821C28.0794 74.8018 28.2938 75.6932 27.9332 76.0572C27.5725 76.4212 25.8103 76.9859 23.5378 76.8736C22.4016 76.8158 21.2211 76.2205 20.8979 75.4958C20.5748 74.7712 19.9318 74.1419 19.7141 74.4855C19.4929 74.8257 19.5474 75.8258 19.5474 75.8258C19.5474 75.8258 18.9214 75.9857 18.7207 75.7442C18.7207 75.7442 18.8908 74.2882 18.8024 73.5567C18.7139 72.8287 19.2344 71.2978 19.2344 71.2978C19.2344 71.2978 20.3298 71.0631 20.8707 72.3184C21.1735 73.0226 21.2517 73.3832 21.9832 73.9412C22.7146 74.4991 23.5276 74.7202 24.1808 74.6317C24.4224 74.5977 25.0279 74.312 25.0143 73.6758H25.0109Z" fill="url(#paint0_linear_2_792)"/>
<path style="mix-blend-mode:multiply" opacity="0.42" d="M25.0109 73.6758C25.0109 73.6758 26.6608 74.1453 27.3888 74.4821C28.0794 74.8018 28.2938 75.6932 27.9332 76.0572C27.5725 76.4212 25.8103 76.9859 23.5378 76.8736C22.4016 76.8158 21.2211 76.2205 20.8979 75.4958C20.5748 74.7712 19.9318 74.1419 19.7141 74.4855C19.4929 74.8257 19.5474 75.8258 19.5474 75.8258C19.5474 75.8258 18.9214 75.9857 18.7207 75.7442C18.7207 75.7442 18.8908 74.2882 18.8024 73.5567C18.7139 72.8287 19.2344 71.2978 19.2344 71.2978C19.2344 71.2978 20.3298 71.0631 20.8707 72.3184C21.1735 73.0226 21.2517 73.3832 21.9832 73.9412C22.7146 74.4991 23.5276 74.7202 24.1808 74.6317C24.4224 74.5977 25.0279 74.312 25.0143 73.6758H25.0109Z" fill="url(#paint1_linear_2_792)"/>
<path d="M24.4021 73.8663C24.4021 73.8663 24.6709 65.8888 24.3273 61.6466C23.9837 57.4077 25.2594 50.5154 25.2594 50.5154L28.6614 50.9032C28.6614 50.9032 26.9366 69.3996 27.1373 73.5023C27.338 77.605 24.4021 73.8629 24.4021 73.8629V73.8663Z" fill="#F8CBBC"/>
<path d="M24.4293 72.9512C24.4293 72.9512 24.5178 74.431 24.1538 75.2475C23.9122 75.7884 24.4905 76.1898 24.7831 76.5096C25.4363 77.2172 25.5247 77.2002 26.0248 78.1085C26.5249 79.0169 28.3824 79.3502 29.8316 79.0747C31.2808 78.8025 32.3252 78.4215 31.7571 77.7173C31.189 77.0131 29.3553 76.9621 28.447 75.7782C27.6578 74.7474 27.1339 73.5091 27.1339 73.5091L24.4259 72.9546L24.4293 72.9512Z" fill="#F8CBBC"/>
<path d="M30.0492 76.7886C30.0492 76.7886 31.6992 77.2581 32.4272 77.5949C33.1178 77.9146 33.3321 78.8059 32.9715 79.17C32.6075 79.5306 30.8487 80.0987 28.5762 79.9864C27.4399 79.9286 26.2595 79.3333 25.9363 78.6086C25.6131 77.884 24.9701 77.2547 24.7524 77.5983C24.5347 77.9419 24.5857 78.9386 24.5857 78.9386C24.5857 78.9386 23.9597 79.0985 23.759 78.857C23.759 78.857 23.9291 77.4009 23.8407 76.6695C23.7522 75.9381 24.2727 74.4106 24.2727 74.4106C24.2727 74.4106 25.3682 74.1759 25.9091 75.4312C26.2118 76.1354 26.2901 76.496 27.0215 77.0539C27.7529 77.6119 28.566 77.833 29.2191 77.7445C29.4607 77.7105 30.0662 77.4248 30.0526 76.7886H30.0492Z" fill="url(#paint2_linear_2_792)"/>
<path d="M29.2496 32.5021C29.2496 32.5021 30.6376 34.7644 30.9131 46.5317C31.1887 58.299 32.791 63.5278 32.791 63.5278C32.791 63.5278 21.2346 68.4368 15.7881 62.6297C15.7881 62.6297 18.8464 53.4343 17.717 47.1339C16.5875 40.8335 16.7134 36.5538 18.081 33.8731L19.4486 31.1924L29.253 32.4987L29.2496 32.5021Z" fill="#DFE0E0"/>
<mask id="mask0_2_792" style="mask-type:luminance" maskUnits="userSpaceOnUse" x="15" y="31" width="18" height="35">
<path d="M29.2496 32.5021C29.2496 32.5021 30.6376 34.7644 30.9131 46.5317C31.1887 58.299 32.791 63.5278 32.791 63.5278C32.791 63.5278 21.2346 68.4368 15.7881 62.6297C15.7881 62.6297 18.8464 53.4343 17.717 47.1339C16.5875 40.8335 16.7134 36.5538 18.081 33.8731L19.4486 31.1924L29.253 32.4987L29.2496 32.5021Z" fill="white"/>
</mask>
<g mask="url(#mask0_2_792)">
<path d="M31.927 35.2543C31.927 35.2543 31.5188 50.859 22.9799 55.8939C14.441 60.9287 10.1648 58.9352 10.1648 58.9352L14.7778 70.2636L38.1083 69.5322L31.9304 35.2509L31.927 35.2543Z" fill="#D2D2D3"/>
</g>
<path d="M22.4221 10.4882L22.5548 14.1045C22.5548 14.1045 22.9086 14.642 23.9938 14.6011C25.079 14.5603 25.7084 14.1487 25.8376 13.9139L25.6982 10.1582L22.4187 10.4848L22.4221 10.4882Z" fill="#F8CBBC"/>
<path d="M30.3078 16.0231C30.3078 16.0231 31.5461 17.3873 32.3251 19.9558C33.1076 22.5242 34.2336 25.6915 33.7505 26.6916C33.2674 27.6952 31.4678 28.4912 30.7806 27.981C30.0934 27.4741 28.0489 21.6363 27.9672 20.5647C27.8856 19.4931 28.1884 15.7578 30.3078 16.0197V16.0231Z" fill="#6167AD"/>
<path d="M7.94663 21.1431C7.94663 21.1431 6.88863 20.2177 6.61647 19.7653C6.34432 19.3128 6.69812 18.7685 6.50081 18.146C6.30689 17.5234 5.87825 15.7442 5.41899 15.8803C4.95973 16.0163 5.54486 17.0335 5.4462 17.5098C5.34755 17.9861 4.88488 17.6595 4.5583 17.3261C4.22831 16.9927 3.08186 17.4179 2.44569 18.3535C1.80953 19.289 1.91839 19.7074 2.61239 20.3946C3.30638 21.0818 3.6874 21.3404 4.44263 21.4084C5.19786 21.4799 6.69472 22.776 6.69472 22.776L7.94663 21.1465V21.1431Z" fill="#F8CBBC"/>
<path d="M4.5891 17.4418C4.5891 17.4418 4.0584 16.6015 3.49368 15.9211C2.92895 15.2407 2.50031 14.659 2.26898 14.7746C2.03765 14.8903 2.07507 15.0774 2.34042 15.5197C2.60577 15.9619 3.82366 17.7581 3.82366 17.7581L4.5857 17.4418H4.5891Z" fill="#F8CBBC"/>
<path d="M3.52423 17.605C3.52423 17.605 2.91868 16.8192 2.29273 16.1932C1.66677 15.5673 1.1871 15.0298 0.969373 15.1692C0.751649 15.3087 0.80608 15.489 1.11225 15.9041C1.41843 16.3191 2.79621 17.9929 2.79621 17.9929L3.52423 17.6084V17.605Z" fill="#F8CBBC"/>
<path d="M2.89151 18.2786C2.89151 18.2786 2.21452 17.554 1.53073 16.9893C0.846941 16.4246 0.319641 15.9347 0.115525 16.0946C-0.0885918 16.2545 -0.0171511 16.428 0.326445 16.8124C0.670041 17.1968 2.20431 18.7311 2.20431 18.7311L2.89491 18.2786H2.89151Z" fill="#F8CBBC"/>
<path d="M3.22504 19.704C3.22504 19.704 2.44599 19.0883 1.68736 18.6324C0.928729 18.1766 0.329988 17.7717 0.153087 17.9622C-0.0238138 18.1527 0.0714405 18.3126 0.469467 18.6392C0.867494 18.9692 2.61269 20.2551 2.61269 20.2551L3.22504 19.704Z" fill="#F8CBBC"/>
<path d="M20.2719 14.067C20.2719 14.067 17.7545 15.5707 16.2917 18.7957C15.3663 20.8335 12.376 25.8343 12.5529 27.0863C12.7298 28.3416 13.9103 28.7498 14.7676 28.413C15.6249 28.0762 19.9692 20.2211 19.9692 20.2211C19.9692 20.2211 22.4084 14.7814 20.2719 14.0636V14.067Z" fill="#6167AD"/>
<path d="M7.70188 20.5817C8.75989 21.4322 14.3663 24.596 14.9616 26.2426C15.557 27.8891 15.1113 28.5865 14.0941 28.5219C13.0769 28.4572 10.7738 26.4569 9.20214 25.0757C7.63044 23.6945 6.19482 22.5514 6.19482 22.5514L7.70529 20.5817H7.70188Z" fill="#6167AD"/>
<g style="mix-blend-mode:multiply">
<path d="M22.4219 10.4882L22.4967 12.5294C22.4967 12.5294 22.8879 13.1621 23.997 13.1213C25.106 13.0805 25.783 12.4103 25.783 12.4103L25.7252 10.825L22.4219 10.4916V10.4882Z" fill="#F8CBBC"/>
</g>
<path d="M27.7819 5.82112C27.7153 4.00551 26.1895 2.58763 24.3739 2.6542C22.5583 2.72078 21.1404 4.2466 21.207 6.06222L21.2838 8.1564C21.3503 9.97202 22.8762 11.3899 24.6918 11.3233C26.5074 11.2567 27.9253 9.73093 27.8587 7.91531L27.7819 5.82112Z" fill="#F8CBBC"/>
<path d="M25.4363 3.93264C25.4363 3.93264 25.1403 4.47355 23.3985 5.15734C21.6567 5.83773 20.5171 6.06226 20.5171 6.06226L20.5953 8.15785C20.5953 8.15785 19.738 7.56251 19.7516 5.91597C19.7686 4.26943 20.7586 1.64654 23.2284 1.25191C25.6982 0.85729 26.2663 1.85066 26.2663 1.85066C26.2663 1.85066 28.1442 2.59228 27.8278 4.35108C27.5114 6.10988 27.1202 6.53172 27.1202 6.53172C27.1202 6.53172 25.4431 5.93298 25.4397 3.93264H25.4363Z" fill="url(#paint3_linear_2_792)"/>
<path d="M16.9687 33.6146C16.9687 33.584 16.9755 33.5568 16.9823 33.5261C17.1831 32.4545 19.1732 26.9876 19.3025 25.4363C19.4385 23.8034 17.5062 23.5857 17.4076 21.5309C17.3089 19.4727 18.2002 16.0368 19.7583 14.5127C20.3469 13.7337 21.0715 13.5227 21.8097 13.4207C22.0308 13.3798 22.269 13.3526 22.5207 13.339C22.5207 13.339 22.5207 13.339 22.5241 13.339C22.997 13.3084 23.5379 13.3186 24.1706 13.339C24.7286 13.3594 25.2831 13.4343 25.8172 13.5499C26.7017 13.7371 27.5352 14.0364 28.253 14.4004C28.2598 14.4038 28.27 14.4072 28.2768 14.4106C28.3346 14.4413 28.3924 14.4685 28.4469 14.4991C28.4571 14.5059 28.4673 14.5093 28.4809 14.5161C28.5353 14.5467 28.5932 14.5773 28.6476 14.6079C28.6544 14.6079 28.6578 14.6148 28.6646 14.6182C28.8313 14.7134 28.9912 14.8155 29.1409 14.9175C29.1545 14.9277 29.1715 14.9379 29.1851 14.9481C29.2225 14.9754 29.2633 15.0026 29.3008 15.0298C29.3212 15.0434 29.3416 15.0604 29.362 15.074C29.396 15.1012 29.43 15.125 29.4641 15.1523C29.4879 15.1693 29.5083 15.1863 29.5287 15.2033C29.5593 15.2271 29.5899 15.2543 29.6205 15.2781C29.6444 15.2985 29.6682 15.319 29.6886 15.3394C29.726 15.3734 29.7634 15.404 29.7974 15.438C29.8315 15.4686 29.8655 15.5027 29.8995 15.5333C29.9199 15.5537 29.9403 15.5741 29.9607 15.5945C29.9846 15.6183 30.0084 15.6455 30.0322 15.6694C30.0526 15.6898 30.0696 15.7102 30.0866 15.7306C30.1104 15.7578 30.1308 15.7816 30.1512 15.8088C30.1683 15.8292 30.1853 15.8497 30.2023 15.8701C30.2227 15.8973 30.2465 15.9245 30.2669 15.9517C30.2805 15.9687 30.2941 15.9891 30.3077 16.0061C30.3349 16.0436 30.3588 16.0776 30.3792 16.115C30.386 16.1252 30.3928 16.1354 30.3996 16.1422C30.4268 16.1864 30.454 16.2341 30.4778 16.2783C30.4846 16.2919 30.4914 16.3089 30.4982 16.3225C30.5153 16.3531 30.5289 16.3872 30.5425 16.4178C30.5493 16.4348 30.5561 16.4518 30.5629 16.4688C30.5731 16.4994 30.5867 16.5266 30.5935 16.5573C30.6003 16.5743 30.6037 16.5913 30.6105 16.6083C30.6207 16.6389 30.6275 16.6695 30.6343 16.7001C30.6343 16.7137 30.6411 16.7308 30.6445 16.7444C30.6547 16.7886 30.6615 16.8362 30.6649 16.8804C30.6819 17.0744 30.6513 17.3261 30.5833 17.6153C30.5493 17.7615 30.5084 17.918 30.4574 18.0813C30.3315 18.493 30.1581 18.959 29.9539 19.4557C29.8315 19.7517 29.7022 20.0613 29.5661 20.3742C29.3824 20.7893 29.1919 21.2145 29.0014 21.6364C28.8585 21.9527 28.7156 22.2623 28.5796 22.5685C28.4877 22.7726 28.3992 22.9699 28.3142 23.1638C27.9298 24.0347 27.6168 24.7934 27.5011 25.2934C27.0895 27.0659 31.8046 34.414 31.6073 34.9822C31.5426 35.1727 30.8452 35.6251 29.8995 36.115C29.1987 36.5266 28.3788 36.9417 27.6304 37.1492C27.6304 37.1492 27.6168 37.1526 27.5964 37.1594C27.5488 37.1764 27.5011 37.19 27.4535 37.2002C26.9296 37.3397 25.2388 37.6867 22.1261 37.4282C18.2989 37.1084 16.9483 34.9039 16.9687 33.652C16.9687 33.6418 16.9687 33.6282 16.9687 33.6112V33.6146Z" fill="#6167AD"/>
<path d="M21.507 0.574939C21.507 0.574939 22.5616 -0.0714295 24.4973 0.00681507C27.8618 0.146295 29.5185 3.12639 29.1681 4.65727C28.6646 6.85832 27.8278 6.98759 26.848 7.15769C25.1845 7.44686 25.2389 10.0595 26.45 11.8047C28.253 14.397 25.7798 19.323 21.5954 22.0718C18.4554 24.1334 25.7798 33.6078 18.6731 37.5234C14.8221 39.6428 4.70138 37.9657 4.15707 32.3082C3.60936 26.6508 6.68471 24.5076 10.1717 22.7726C13.6587 21.0376 10.6548 15.4992 13.2198 13.1179C14.8732 11.5836 16.2169 12.2096 17.9519 10.1582C19.6869 8.10683 18.3227 6.91275 18.2241 4.78314C18.1254 2.65693 19.7584 0.367421 21.5036 0.571537L21.507 0.574939Z" fill="url(#paint4_linear_2_792)"/>
<path d="M26.8479 7.15769C26.8479 7.15769 26.2084 5.87856 25.215 6.38885C24.2216 6.89914 25.2728 9.2839 26.7765 9.06958L26.8479 7.15769Z" fill="#F8CBBC"/>
<mask id="mask1_2_792" style="mask-type:luminance" maskUnits="userSpaceOnUse" x="4" y="0" width="26" height="39">
<path d="M21.507 0.574939C21.507 0.574939 22.5616 -0.0714295 24.4973 0.00681507C27.8618 0.146295 29.5185 3.12639 29.1681 4.65727C28.6646 6.85832 27.8278 6.98759 26.848 7.15769C25.1845 7.44686 25.2389 10.0595 26.45 11.8047C28.253 14.397 25.7798 19.323 21.5954 22.0718C18.4554 24.1334 25.7798 33.6078 18.6731 37.5234C14.8221 39.6428 4.70138 37.9657 4.15707 32.3082C3.60936 26.6508 6.68471 24.5076 10.1717 22.7726C13.6587 21.0376 10.6548 15.4992 13.2198 13.1179C14.8732 11.5836 16.2169 12.2096 17.9519 10.1582C19.6869 8.10683 18.3227 6.91275 18.2241 4.78314C18.1254 2.65693 19.7584 0.367421 21.5036 0.571537L21.507 0.574939Z" fill="white"/>
</mask>
<g mask="url(#mask1_2_792)">
<path style="mix-blend-mode:multiply" opacity="0.24" d="M26.1813 8.40622C26.1813 8.40622 25.3342 8.28375 25.3342 12.0021C25.3342 15.7204 22.2622 18.3331 19.3536 20.5818C16.4449 22.8304 19.6359 30.5086 16.8497 32.8117C14.0602 35.1148 8.80756 35.802 5.65396 34.1045C2.50036 32.4069 2.42212 31.1958 2.42212 31.1958L4.59256 40.5443L23.8101 43.6435L34.6691 14.7542L26.1847 8.39941L26.1813 8.40622Z" fill="url(#paint5_linear_2_792)"/>
</g>
<path d="M42.2383 23.1264C42.2383 23.1264 42.4016 23.1876 42.82 22.8032C43.2385 22.4188 43.0411 21.7452 43.4358 21.1567C43.8304 20.5715 44.817 18.8569 45.2524 19.1393C45.6878 19.4217 44.7693 20.296 44.7251 20.8199C44.6809 21.3438 45.2626 21.1465 45.7049 20.9015C46.1471 20.6566 47.2085 21.4492 47.5827 22.6127C47.9569 23.7762 47.712 24.181 46.7833 24.6811C45.8545 25.1812 45.3783 25.3308 44.5754 25.1743C43.7726 25.0179 42.6227 25.3649 42.6227 25.3649L42.2383 23.1298V23.1264Z" fill="#F8CBBC"/>
<path d="M45.6367 21.0138C45.6367 21.0138 46.443 20.3028 47.239 19.7687C48.0351 19.2346 48.6542 18.7617 48.8584 18.9556C49.0625 19.1495 48.9672 19.3264 48.5556 19.704C48.1439 20.0817 46.3307 21.5717 46.3307 21.5717L45.6367 21.0104V21.0138Z" fill="#F8CBBC"/>
<path d="M46.6914 21.5105C46.6914 21.5105 47.5623 20.8811 48.4026 20.4218C49.2429 19.966 49.9062 19.551 50.0899 19.7653C50.2736 19.9796 50.1614 20.1463 49.7191 20.4831C49.2769 20.8199 47.331 22.133 47.331 22.133L46.6914 21.5105Z" fill="#F8CBBC"/>
<path d="M47.144 22.4018C47.144 22.4018 48.0694 21.8575 48.9505 21.4799C49.8316 21.1056 50.529 20.7586 50.6923 20.9866C50.8556 21.2145 50.7297 21.371 50.2534 21.667C49.7805 21.9595 47.719 23.0822 47.719 23.0822L47.144 22.4018Z" fill="#F8CBBC"/>
<path d="M46.3613 23.7796C46.3613 23.7796 47.3581 23.3781 48.2868 23.14C49.2156 22.9018 49.9572 22.6637 50.0831 22.9121C50.2089 23.1604 50.0592 23.2999 49.5489 23.5176C49.0353 23.7353 46.8308 24.5382 46.8308 24.5382L46.3647 23.7796H46.3613Z" fill="#F8CBBC"/>
<path d="M42.8236 25.3853C40.9423 26.4195 35.8836 28.2293 34.1112 28.6852C32.3388 29.141 31.2128 28.5933 30.7671 28.0762C30.3215 27.5591 29.505 25.6404 32.5293 24.4497C35.5537 23.2625 42.2351 22.9155 42.2351 22.9155C42.2351 22.9155 42.5378 23.1468 42.8372 23.9224C43.1366 24.6981 42.8236 25.3785 42.8236 25.3785V25.3853Z" fill="#6167AD"/>
<defs>
<linearGradient id="paint0_linear_2_792" x1="23.5631" y1="71.4351" x2="23.3637" y2="76.8745" gradientUnits="userSpaceOnUse">
<stop stop-color="#E18296"/>
<stop offset="1" stop-color="#F2A59C"/>
</linearGradient>
<linearGradient id="paint1_linear_2_792" x1="23.5631" y1="71.4351" x2="23.3637" y2="76.8745" gradientUnits="userSpaceOnUse">
<stop stop-color="#E18296"/>
<stop offset="1" stop-color="#F2A59C"/>
</linearGradient>
<linearGradient id="paint2_linear_2_792" x1="28.603" y1="74.5475" x2="28.4036" y2="79.987" gradientUnits="userSpaceOnUse">
<stop stop-color="#E18296"/>
<stop offset="1" stop-color="#F2A59C"/>
</linearGradient>
<linearGradient id="paint3_linear_2_792" x1="23.6667" y1="1.1577" x2="23.9182" y2="8.01481" gradientUnits="userSpaceOnUse">
<stop stop-color="#E18296"/>
<stop offset="1" stop-color="#F2A59C"/>
</linearGradient>
<linearGradient id="paint4_linear_2_792" x1="17.3113" y1="-0.247978" x2="15.8911" y2="38.4843" gradientUnits="userSpaceOnUse">
<stop stop-color="#E96381"/>
<stop offset="1" stop-color="#F1A49B"/>
</linearGradient>
<linearGradient id="paint5_linear_2_792" x1="18.02" y1="8.70559" x2="19.3093" y2="43.8136" gradientUnits="userSpaceOnUse">
<stop stop-color="#E18296"/>
<stop offset="1" stop-color="#F2A59C"/>
</linearGradient>
</defs>
</svg>
